<svg width="246" height="76" viewBox="0 0 246 76" fill="none" xmlns="http://www.w3.org/2000/svg">
<path d="M84.4881 37.7154C84.2025 30.3718 89.9549 24.2114 97.2985 23.9258H97.8289C104.601 23.9258 108.599 27.8831 109.783 32.5341L105.54 33.962C104.764 30.3718 101.46 27.8831 97.8289 28.1687C93.4635 28.1687 89.0574 31.3509 89.0574 37.797C89.0574 44.243 93.3411 47.3028 97.8697 47.3028C101.541 47.3844 104.805 44.9773 105.784 41.4687L109.905 42.815C108.436 48.2003 103.418 51.8721 97.8289 51.5865C90.5669 51.7089 84.5697 45.9565 84.4473 38.6945C84.4473 38.3681 84.4473 38.0417 84.4881 37.7154Z" fill="#3B55A5"/>
<path d="M118.146 50.9746H113.699V23.8442H118.146V34.4924C119.411 32.9829 121.328 32.1261 123.327 32.2077C127.815 32.2077 130.018 35.4307 130.018 39.4289V50.9746H125.694V40.1633C125.979 38.2458 124.633 36.4507 122.715 36.1651C122.471 36.1243 122.185 36.1243 121.94 36.1651C119.86 36.1651 118.146 37.8786 118.146 39.9593C118.146 40.0817 118.146 40.1633 118.146 40.2857V50.9746Z" fill="#3B55A5"/>
<path d="M139.647 40.5305L144.339 39.7962C145.399 39.6738 145.685 39.1026 145.685 38.4906C145.685 36.9403 144.665 35.7164 142.217 35.7164C140.34 35.5532 138.668 36.9403 138.464 38.817V38.9802L134.506 38.0827C134.833 34.9412 137.689 32.1262 142.176 32.1262C147.806 32.1262 149.928 35.3084 149.928 39.021V48.078C149.928 49.0572 149.969 50.0363 150.173 51.0155H146.134C145.97 50.2403 145.93 49.4652 145.97 48.69C144.747 50.5667 142.584 51.6682 140.34 51.5866C137.199 51.8314 134.466 49.5468 134.139 46.4054V46.1198C134.098 42.7336 136.505 40.9793 139.647 40.5305ZM145.644 43.4679V42.652L140.871 43.3455C139.524 43.3863 138.464 44.4879 138.423 45.8342C138.423 47.1805 139.524 48.2412 140.871 48.2004H141.075C143.359 48.486 145.44 46.8133 145.685 44.5287C145.685 44.4879 145.685 44.4879 145.685 44.4471C145.766 44.1207 145.726 43.7943 145.644 43.4679Z" fill="#3B55A5"/>
<path d="M157.312 23.4771C158.863 23.4771 160.168 24.701 160.209 26.2921C160.209 27.8424 158.944 29.1071 157.394 29.1479C155.844 29.1479 154.579 27.8832 154.538 26.3329C154.497 24.7418 155.762 23.4771 157.312 23.4771ZM155.191 51.0562V32.7381H159.556V50.9746L155.191 51.0562Z" fill="#3B55A5"/>
<path d="M169.429 50.9745H165.063V32.738H169.306V35.1858C170.449 33.3091 172.489 32.1668 174.692 32.2076C179.139 32.2076 181.26 35.4306 181.26 39.4288V50.9745H176.936V40.1631C176.936 37.9193 175.916 36.1242 173.182 36.1242C171.061 36.1242 169.347 37.8785 169.347 39.9999C169.347 40.1631 169.347 40.2855 169.347 40.4487L169.429 50.9745Z" fill="#3B55A5"/>
<path d="M190.929 23.8442H186.604V50.9746H190.929V23.8442Z" fill="#3B55A5"/>
<path d="M198.721 23.4771C200.272 23.4771 201.536 24.7418 201.577 26.2921C201.577 27.8424 200.312 29.1071 198.762 29.1479C197.212 29.1479 195.947 27.8832 195.906 26.3329V26.2921C195.906 24.7418 197.13 23.4771 198.721 23.4771ZM196.559 51.0562V32.7381H200.884V50.9746L196.559 51.0562Z" fill="#3B55A5"/>
<path d="M210.838 50.9745H206.514V32.738H210.757V35.1858C211.899 33.3091 213.939 32.1668 216.142 32.2076C220.589 32.2076 222.751 35.4306 222.751 39.4288V50.9745H218.427V40.1631C218.712 38.2456 217.366 36.4506 215.448 36.165C215.204 36.1242 214.918 36.1242 214.673 36.165C212.552 36.165 210.838 37.8785 210.879 39.9999C210.879 40.1631 210.879 40.3263 210.879 40.4487L210.838 50.9745Z" fill="#3B55A5"/>
<path d="M237.561 40.408L245.231 50.9746H239.886L234.542 43.4271L232.298 45.7933V50.9746H227.974V23.8442H232.298V40.0817L239.315 32.7381H245.068L237.561 40.408Z" fill="#3B55A5"/>
<path d="M33.0018 16.5006L51.8094 27.312V48.9755L33.0834 59.8276L14.2757 49.1387V27.3936L33.0018 16.5006ZM33.0018 0.5896L26.107 4.58776L7.3401 15.4807L0.445312 19.4789V57.0534L7.3401 61.0108L26.1478 71.7813L33.0425 75.7387L39.9373 71.7405L58.6634 60.8476L65.5582 56.8494V19.2341L58.6634 15.2767L39.8557 4.46537L33.0018 0.5896Z" fill="#3B55A5"/>
</svg>
