<svg width="176" height="55" viewBox="0 0 176 55" fill="none" xmlns="http://www.w3.org/2000/svg">
<path d="M60.42 26.8214C60.2146 21.5419 64.3503 17.113 69.6298 16.9077H70.0111C74.8799 16.9077 77.7543 19.7528 78.6049 23.0965L75.5545 24.123C74.9973 21.5419 72.6215 19.7528 70.0111 19.9581C66.8727 19.9581 63.705 22.2459 63.705 26.8801C63.705 31.5143 66.7847 33.7141 70.0404 33.7141C72.6801 33.7728 75.0266 32.0423 75.7305 29.5198L78.6929 30.4877C77.637 34.3594 74.0293 36.9991 70.0111 36.7938C64.7902 36.8818 60.4786 32.7462 60.3906 27.5254C60.3906 27.2907 60.3906 27.0561 60.42 26.8214Z" fill="white"/>
<path d="M84.6189 36.3539H81.4219V16.849H84.6189V24.5043C85.5282 23.4191 86.9067 22.8031 88.3439 22.8618C91.5703 22.8618 93.1541 25.1789 93.1541 28.0533V36.3539H90.0451V28.5813C90.2504 27.2027 89.2825 25.9122 87.9039 25.7069C87.728 25.6775 87.5226 25.6775 87.3467 25.7069C85.8508 25.7069 84.6189 26.9387 84.6189 28.4346C84.6189 28.5226 84.6189 28.5813 84.6189 28.6693V36.3539Z" fill="white"/>
<path d="M100.076 28.8452L103.449 28.3172C104.212 28.2292 104.417 27.8186 104.417 27.3787C104.417 26.2641 103.684 25.3842 101.924 25.3842C100.575 25.2669 99.3723 26.2641 99.2256 27.6133V27.7306L96.3806 27.0854C96.6152 24.8269 98.6683 22.8031 101.895 22.8031C105.942 22.8031 107.468 25.0909 107.468 27.76V34.2713C107.468 34.9753 107.497 35.6792 107.644 36.3831H104.74C104.622 35.8259 104.593 35.2686 104.622 34.7113C103.743 36.0605 102.188 36.8524 100.575 36.7938C98.3164 36.9697 96.3512 35.3272 96.1166 33.0688V32.8635C96.0872 30.429 97.8178 29.1678 100.076 28.8452ZM104.388 30.957V30.3704L100.956 30.869C99.9882 30.8983 99.2256 31.6902 99.1963 32.6582C99.1963 33.6261 99.9882 34.3887 100.956 34.3593H101.103C102.745 34.5646 104.241 33.3621 104.417 31.7196C104.417 31.6903 104.417 31.6902 104.417 31.6609C104.476 31.4263 104.446 31.1916 104.388 30.957Z" fill="white"/>
<path d="M112.776 16.5851C113.891 16.5851 114.83 17.465 114.859 18.6089C114.859 19.7235 113.95 20.6327 112.835 20.662C111.721 20.662 110.811 19.7528 110.782 18.6382C110.753 17.4943 111.662 16.5851 112.776 16.5851ZM111.251 36.4126V23.2431H114.39V36.3539L111.251 36.4126Z" fill="white"/>
<path d="M121.487 36.3539H118.349V23.2431H121.399V25.003C122.22 23.6538 123.687 22.8325 125.271 22.8618C128.468 22.8618 129.993 25.179 129.993 28.0534V36.3539H126.884V28.5813C126.884 26.9681 126.151 25.6776 124.185 25.6776C122.66 25.6776 121.428 26.9388 121.428 28.464C121.428 28.5813 121.428 28.6693 121.428 28.7866L121.487 36.3539Z" fill="white"/>
<path d="M136.945 16.849H133.836V36.3539H136.945V16.849Z" fill="white"/>
<path d="M142.546 16.5851C143.661 16.5851 144.57 17.4943 144.599 18.6089C144.599 19.7235 143.69 20.6327 142.576 20.662C141.461 20.662 140.552 19.7528 140.522 18.6382V18.6089C140.522 17.4943 141.402 16.5851 142.546 16.5851ZM140.992 36.4126V23.2431H144.101V36.3539L140.992 36.4126Z" fill="white"/>
<path d="M151.258 36.3539H148.149V23.2431H151.2V25.003C152.021 23.6538 153.488 22.8325 155.071 22.8618C158.268 22.8618 159.823 25.179 159.823 28.0534V36.3539H156.714V28.5813C156.919 27.2028 155.951 25.9122 154.573 25.7069C154.397 25.6776 154.192 25.6776 154.016 25.7069C152.49 25.7069 151.258 26.9388 151.288 28.464C151.288 28.5813 151.288 28.6986 151.288 28.7866L151.258 36.3539Z" fill="white"/>
<path d="M170.469 28.7572L175.983 36.3539H172.141L168.298 30.9277L166.685 32.6289V36.3539H163.576V16.849H166.685V28.5226L171.73 23.2431H175.866L170.469 28.7572Z" fill="white"/>
<path d="M23.4058 11.5695L36.9272 19.3422V34.9167L23.4645 42.7186L9.94307 35.034V19.4008L23.4058 11.5695ZM23.4058 0.130615L18.4489 3.00501L4.95687 10.8363L0 13.7107V40.7242L4.95687 43.5692L18.4783 51.3125L23.4351 54.1576L28.392 51.2832L41.8548 43.4519L46.8116 40.5775V13.5347L41.8548 10.6896L28.3334 2.91702L23.4058 0.130615Z" fill="white"/>
</svg>
