<svg width="255" height="35" viewBox="0 0 255 35" fill="none" xmlns="http://www.w3.org/2000/svg">
<path d="M42.805 17.95C42.805 16.3707 43.1577 14.96 43.863 13.718C44.5837 12.4607 45.5573 11.487 46.784 10.797C48.026 10.0917 49.4137 9.739 50.947 9.739C52.741 9.739 54.3127 10.199 55.662 11.119C57.0113 12.039 57.9543 13.3117 58.491 14.937H54.788C54.42 14.1703 53.8987 13.5953 53.224 13.212C52.5647 12.8287 51.798 12.637 50.924 12.637C49.9887 12.637 49.153 12.8593 48.417 13.304C47.6963 13.7333 47.129 14.3467 46.715 15.144C46.3163 15.9413 46.117 16.8767 46.117 17.95C46.117 19.008 46.3163 19.9433 46.715 20.756C47.129 21.5533 47.6963 22.1743 48.417 22.619C49.153 23.0483 49.9887 23.263 50.924 23.263C51.798 23.263 52.5647 23.0713 53.224 22.688C53.8987 22.2893 54.42 21.7067 54.788 20.94H58.491C57.9543 22.5807 57.0113 23.861 55.662 24.781C54.328 25.6857 52.7563 26.138 50.947 26.138C49.4137 26.138 48.026 25.793 46.784 25.103C45.5573 24.3977 44.5837 23.424 43.863 22.182C43.1577 20.94 42.805 19.5293 42.805 17.95ZM64.4613 15.236C64.8753 14.5613 65.412 14.0323 66.0713 13.649C66.746 13.2657 67.5126 13.074 68.3713 13.074V16.455H67.5203C66.5083 16.455 65.7416 16.6927 65.2203 17.168C64.7143 17.6433 64.4613 18.4713 64.4613 19.652V26H61.2413V13.258H64.4613V15.236ZM82.7301 13.258L74.8411 32.026H71.4141L74.1741 25.678L69.0681 13.258H72.6791L75.9681 22.159L79.3031 13.258H82.7301ZM87.6859 15.098C88.0999 14.5153 88.6672 14.0323 89.3879 13.649C90.1239 13.2503 90.9596 13.051 91.8949 13.051C92.9836 13.051 93.9649 13.3193 94.8389 13.856C95.7282 14.3927 96.4259 15.1593 96.9319 16.156C97.4532 17.1373 97.7139 18.2797 97.7139 19.583C97.7139 20.8863 97.4532 22.044 96.9319 23.056C96.4259 24.0527 95.7282 24.827 94.8389 25.379C93.9649 25.931 92.9836 26.207 91.8949 26.207C90.9596 26.207 90.1316 26.0153 89.4109 25.632C88.7056 25.2487 88.1306 24.7657 87.6859 24.183V32.072H84.4659V13.258H87.6859V15.098ZM94.4249 19.583C94.4249 18.8163 94.2639 18.157 93.9419 17.605C93.6352 17.0377 93.2212 16.6083 92.6999 16.317C92.1939 16.0257 91.6419 15.88 91.0439 15.88C90.4612 15.88 89.9092 16.0333 89.3879 16.34C88.8819 16.6313 88.4679 17.0607 88.1459 17.628C87.8392 18.1953 87.6859 18.8623 87.6859 19.629C87.6859 20.3957 87.8392 21.0627 88.1459 21.63C88.4679 22.1973 88.8819 22.6343 89.3879 22.941C89.9092 23.2323 90.4612 23.378 91.0439 23.378C91.6419 23.378 92.1939 23.2247 92.6999 22.918C93.2212 22.6113 93.6352 22.1743 93.9419 21.607C94.2639 21.0397 94.4249 20.365 94.4249 19.583ZM103.803 15.903V22.067C103.803 22.4963 103.902 22.8107 104.102 23.01C104.316 23.194 104.669 23.286 105.16 23.286H106.655V26H104.631C101.917 26 100.56 24.6813 100.56 22.044V15.903H99.0418V13.258H100.56V10.107H103.803V13.258H106.655V15.903H103.803ZM114.629 26.207C113.402 26.207 112.298 25.9387 111.317 25.402C110.335 24.85 109.561 24.0757 108.994 23.079C108.442 22.0823 108.166 20.9323 108.166 19.629C108.166 18.3257 108.449 17.1757 109.017 16.179C109.599 15.1823 110.389 14.4157 111.386 13.879C112.382 13.327 113.494 13.051 114.721 13.051C115.947 13.051 117.059 13.327 118.056 13.879C119.052 14.4157 119.834 15.1823 120.402 16.179C120.984 17.1757 121.276 18.3257 121.276 19.629C121.276 20.9323 120.977 22.0823 120.379 23.079C119.796 24.0757 118.999 24.85 117.987 25.402C116.99 25.9387 115.871 26.207 114.629 26.207ZM114.629 23.401C115.211 23.401 115.756 23.263 116.262 22.987C116.783 22.6957 117.197 22.2663 117.504 21.699C117.81 21.1317 117.964 20.4417 117.964 19.629C117.964 18.4177 117.642 17.49 116.998 16.846C116.369 16.1867 115.595 15.857 114.675 15.857C113.755 15.857 112.98 16.1867 112.352 16.846C111.738 17.49 111.432 18.4177 111.432 19.629C111.432 20.8403 111.731 21.7757 112.329 22.435C112.942 23.079 113.709 23.401 114.629 23.401ZM134.563 9.946V12.545H130.285V26H127.065V12.545H122.787V9.946H134.563ZM138.545 11.74C137.978 11.74 137.503 11.5637 137.119 11.211C136.751 10.843 136.567 10.3907 136.567 9.854C136.567 9.31733 136.751 8.87267 137.119 8.52C137.503 8.152 137.978 7.968 138.545 7.968C139.113 7.968 139.58 8.152 139.948 8.52C140.332 8.87267 140.523 9.31733 140.523 9.854C140.523 10.3907 140.332 10.843 139.948 11.211C139.58 11.5637 139.113 11.74 138.545 11.74ZM140.132 13.258V26H136.912V13.258H140.132ZM159.138 13.074C160.702 13.074 161.959 13.557 162.91 14.523C163.876 15.4737 164.359 16.8077 164.359 18.525V26H161.139V18.962C161.139 17.9653 160.886 17.2063 160.38 16.685C159.874 16.1483 159.184 15.88 158.31 15.88C157.436 15.88 156.738 16.1483 156.217 16.685C155.711 17.2063 155.458 17.9653 155.458 18.962V26H152.238V18.962C152.238 17.9653 151.985 17.2063 151.479 16.685C150.973 16.1483 150.283 15.88 149.409 15.88C148.519 15.88 147.814 16.1483 147.293 16.685C146.787 17.2063 146.534 17.9653 146.534 18.962V26H143.314V13.258H146.534V14.799C146.948 14.2623 147.477 13.8407 148.121 13.534C148.78 13.2273 149.501 13.074 150.283 13.074C151.279 13.074 152.169 13.2887 152.951 13.718C153.733 14.132 154.338 14.73 154.768 15.512C155.182 14.776 155.78 14.1857 156.562 13.741C157.359 13.2963 158.218 13.074 159.138 13.074ZM179.259 19.353C179.259 19.813 179.228 20.227 179.167 20.595H169.852C169.929 21.515 170.251 22.2357 170.818 22.757C171.385 23.2783 172.083 23.539 172.911 23.539C174.107 23.539 174.958 23.0253 175.464 21.998H178.937C178.569 23.2247 177.864 24.2367 176.821 25.034C175.778 25.816 174.498 26.207 172.98 26.207C171.753 26.207 170.649 25.9387 169.668 25.402C168.702 24.85 167.943 24.0757 167.391 23.079C166.854 22.0823 166.586 20.9323 166.586 19.629C166.586 18.3103 166.854 17.1527 167.391 16.156C167.928 15.1593 168.679 14.3927 169.645 13.856C170.611 13.3193 171.723 13.051 172.98 13.051C174.191 13.051 175.272 13.3117 176.223 13.833C177.189 14.3543 177.933 15.098 178.454 16.064C178.991 17.0147 179.259 18.111 179.259 19.353ZM175.924 18.433C175.909 17.605 175.61 16.9457 175.027 16.455C174.444 15.949 173.731 15.696 172.888 15.696C172.091 15.696 171.416 15.9413 170.864 16.432C170.327 16.9073 169.998 17.5743 169.875 18.433H175.924ZM184.829 15.236C185.243 14.5613 185.78 14.0323 186.439 13.649C187.114 13.2657 187.881 13.074 188.739 13.074V16.455H187.888C186.876 16.455 186.11 16.6927 185.588 17.168C185.082 17.6433 184.829 18.4713 184.829 19.652V26H181.609V13.258H184.829V15.236Z" fill="#0E0E2C"/>
<path d="M16 11V17" stroke="#10159C" stroke-width="2" stroke-linecap="round" stroke-linejoin="round"/>
<path d="M21.1962 20L16 17" stroke="#10159C" stroke-width="2" stroke-linecap="round" stroke-linejoin="round"/>
<path d="M23.0205 13.4645H28.0205V8.46448" stroke="#10159C" stroke-width="2" stroke-linecap="round" stroke-linejoin="round"/>
<path d="M23.7782 24.7782C22.2398 26.3166 20.2798 27.3642 18.146 27.7886C16.0122 28.2131 13.8005 27.9952 11.7905 27.1627C9.78049 26.3301 8.06253 24.9202 6.85383 23.1113C5.64514 21.3023 5 19.1756 5 17C5 14.8244 5.64514 12.6977 6.85383 10.8887C8.06253 9.07979 9.78049 7.66989 11.7905 6.83733C13.8005 6.00477 16.0122 5.78693 18.146 6.21137C20.2798 6.6358 22.2398 7.68345 23.7782 9.22183L28.0208 13.4645" stroke="#10159C" stroke-width="2" stroke-linecap="round" stroke-linejoin="round"/>
</svg>
