<svg width="20" height="21" viewBox="0 0 20 21" fill="none" xmlns="http://www.w3.org/2000/svg">
<path d="M8.23973 8.89014C7.66973 8.89014 7.21973 9.39014 7.21973 10.0001C7.21973 10.6101 7.67973 11.1101 8.23973 11.1101C8.80973 11.1101 9.25973 10.6101 9.25973 10.0001C9.26973 9.39014 8.80973 8.89014 8.23973 8.89014ZM11.8897 8.89014C11.3197 8.89014 10.8697 9.39014 10.8697 10.0001C10.8697 10.6101 11.3297 11.1101 11.8897 11.1101C12.4597 11.1101 12.9097 10.6101 12.9097 10.0001C12.9097 9.39014 12.4597 8.89014 11.8897 8.89014Z" fill="#0E0E2C"/>
<path d="M16.7498 0.5H3.3498C2.2198 0.5 1.2998 1.42 1.2998 2.56V16.08C1.2998 17.22 2.2198 18.14 3.3498 18.14H14.6898L14.1598 16.29L15.4398 17.48L16.6498 18.6L18.7998 20.5V2.56C18.7998 1.42 17.8798 0.5 16.7498 0.5ZM12.8898 13.56C12.8898 13.56 12.5298 13.13 12.2298 12.75C13.5398 12.38 14.0398 11.56 14.0398 11.56C13.6298 11.83 13.2398 12.02 12.8898 12.15C12.3898 12.36 11.9098 12.5 11.4398 12.58C10.4798 12.76 9.5998 12.71 8.8498 12.57C8.2798 12.46 7.7898 12.3 7.37981 12.14C7.14981 12.05 6.8998 11.94 6.6498 11.8C6.6198 11.78 6.5898 11.77 6.5598 11.75C6.5398 11.74 6.5298 11.73 6.5198 11.72C6.3398 11.62 6.2398 11.55 6.2398 11.55C6.2398 11.55 6.7198 12.35 7.9898 12.73C7.68981 13.11 7.3198 13.56 7.3198 13.56C5.1098 13.49 4.2698 12.04 4.2698 12.04C4.2698 8.82 5.7098 6.21 5.7098 6.21C7.1498 5.13 8.5198 5.16 8.5198 5.16L8.6198 5.28C6.8198 5.8 5.9898 6.59 5.9898 6.59C5.9898 6.59 6.20981 6.47 6.5798 6.3C7.64981 5.83 8.4998 5.7 8.8498 5.67C8.9098 5.66 8.9598 5.65 9.0198 5.65C9.6298 5.57 10.3198 5.55 11.0398 5.63C11.9898 5.74 13.0098 6.02 14.0498 6.59C14.0498 6.59 13.2598 5.84 11.5598 5.32L11.6998 5.16C11.6998 5.16 13.0698 5.13 14.5098 6.21C14.5098 6.21 15.9498 8.82 15.9498 12.04C15.9498 12.04 15.0998 13.49 12.8898 13.56Z" fill="#10159C"/>
</svg>
