<svg width="22" height="22" viewBox="0 0 22 22" fill="none" xmlns="http://www.w3.org/2000/svg">
<path d="M14.5 21.4H14.4L14.3 21.3V20.7C14.3 20.1 14.3 19.2 14.3 18.2C14.3 17.5 14.2 16.9 13.9 16.4C16.2 16 18.7 14.8 18.7 10.3C18.7 9.1 18.3 8 17.6 7.1C17.8 6.5 17.9 5.4 17.4 4C17.3 3.9 17.2 3.8 17.1 3.7C17.1 3.7 16.9 3.6 16.7 3.6C16.1 3.6 15.2 3.8 13.7 4.8C12.9 4.7 12 4.5 11 4.5C10 4.5 9.1 4.6 8.2 4.8C6.8 3.9 5.8 3.7 5.2 3.7C5 3.7 4.9 3.8 4.8 3.8C4.7 3.8 4.5 4 4.5 4.1C4 5.5 4.1 6.6 4.3 7.2C3.6 8.1 3.2 9.2 3.2 10.4C3.2 14.8 5.8 16 8 16.5C7.9 16.7 7.8 17 7.7 17.3C7.5 17.4 7.2 17.5 6.8 17.5C6.4 17.5 6 17.4 5.7 17.1L5.6 17C5.5 16.9 5.5 16.8 5.4 16.8L5.3 16.7L5.2 16.6C5.2 16.5 4.4 15.3 3 15.2C2.5 15.2 2.1 15.4 2 15.7C1.8 16.2 2.4 16.6 2.7 16.8C2.7 16.8 3.3 17.1 3.7 18.2C3.9 18.9 4.8 20.2 6.9 20.2C7.1 20.2 7.3 20.2 7.6 20.2V21.6L7.5 21.7C7.5 21.7 7.4 21.7 7.5 21.7C3 19.9 0 15.7 0 11C0 4.9 4.9 0 11 0C17.1 0 22 4.9 22 11C22 15.7 19 19.9 14.5 21.4Z" fill="#0E0E2C"/>
</svg>
