<svg width="63" height="63" viewBox="0 0 63 63" fill="none" xmlns="http://www.w3.org/2000/svg">
<path d="M57.4091 32.2875H54.2198C53.7473 31.185 53.1173 30.1218 52.4085 29.1375C53.5504 28.1531 54.2198 26.8931 54.2198 25.5543C54.2198 22.4043 50.6366 19.9237 46.0691 19.9237C44.1004 19.9237 42.2891 20.3568 40.8716 21.1837C38.076 20.2781 35.1229 19.845 32.091 19.845C19.6485 19.845 9.48977 27.4837 8.66289 37.0912C7.71789 36.6581 7.08789 35.6737 7.08789 34.5712H4.13477C4.13477 37.3668 6.10352 39.69 8.74164 40.2018C9.37164 45.045 12.3641 49.455 17.2466 52.5656V56.385C17.2466 58.9443 19.3335 61.0312 21.8929 61.0312C24.4523 61.0312 26.5391 58.9443 26.5391 56.385V56.1881C30.1616 56.8968 34.0204 56.8968 37.6429 56.1881V56.385C37.6429 58.9443 39.7298 61.0312 42.2891 61.0312C44.8485 61.0312 46.9354 58.9443 46.9354 56.385V52.5656C49.7704 50.7543 52.0541 48.4312 53.511 45.7931H57.4485C58.2754 45.7931 58.9054 45.1237 58.9054 44.3362V33.7443C58.9054 32.9568 58.236 32.2875 57.4091 32.2875ZM55.9523 42.84H52.6054C52.0541 42.84 51.5423 43.155 51.2666 43.6668C49.9279 46.3443 47.6441 48.7068 44.6516 50.4787C44.2185 50.7543 43.9429 51.2268 43.9429 51.7387V56.385C43.9429 57.33 43.1948 58.0781 42.2498 58.0781C41.3048 58.0781 40.5566 57.33 40.5566 56.385V54.3375C40.5566 53.865 40.3598 53.4318 39.966 53.1562C39.6904 52.9593 39.3754 52.8412 39.0604 52.8412C38.9423 52.8412 38.8241 52.8412 38.6666 52.8806C34.4141 53.9831 29.6498 54.0225 25.3579 52.8806C24.9248 52.7625 24.4523 52.8412 24.0979 53.1562C23.7435 53.4318 23.5073 53.865 23.5073 54.3375V56.385C23.5073 57.33 22.7591 58.0781 21.8141 58.0781C20.8691 58.0781 20.121 57.33 20.121 56.385V51.7387C20.121 51.2268 19.8454 50.715 19.4123 50.4787C14.4116 47.5256 11.5373 43.0762 11.5373 38.2725C11.5373 29.7281 20.751 22.7981 32.0516 22.7981C35.0441 22.7981 37.8791 23.2706 40.5566 24.2156C40.9898 24.3731 41.5016 24.2943 41.8954 24.0187C42.9191 23.31 44.4154 22.8768 46.0691 22.8768C49.0616 22.8768 51.2666 24.2943 51.2666 25.5543C51.2666 26.2237 50.6366 26.9325 49.6129 27.4443C49.2191 27.6412 48.9041 28.035 48.8254 28.4681C48.7466 28.9012 48.8648 29.3737 49.1798 29.7281C50.4004 31.1062 51.306 32.6418 51.8573 34.2168C52.0541 34.8075 52.6054 35.2012 53.2354 35.2012H55.9523V42.84Z" fill="#00214D"/>
<path d="M37.0126 17.3644C39.3751 17.3644 41.3045 15.435 41.3045 13.0332C41.3045 10.6313 39.3751 8.7019 37.0126 8.7019C34.6501 8.7019 32.7207 10.6313 32.7207 13.0332C32.7207 15.435 34.6501 17.3644 37.0126 17.3644ZM37.0126 11.6944C37.7607 11.6944 38.3513 12.3244 38.3513 13.0725C38.3513 13.8207 37.7607 14.4507 37.0126 14.4507C36.2645 14.4507 35.6738 13.8207 35.6738 13.0725C35.6738 12.3244 36.2645 11.6944 37.0126 11.6944Z" fill="#10159C"/>
<path d="M26.9325 10.6313C29.295 10.6313 31.2244 8.70188 31.2244 6.3C31.2244 3.89813 29.3344 1.96875 26.9325 1.96875C24.5306 1.96875 22.6406 3.89813 22.6406 6.3C22.6406 8.70188 24.57 10.6313 26.9325 10.6313ZM26.9325 4.92188C27.6806 4.92188 28.2713 5.55188 28.2713 6.3C28.2713 7.04813 27.6806 7.67813 26.9325 7.67813C26.1844 7.67813 25.5938 7.04813 25.5938 6.3C25.5938 5.55188 26.1844 4.92188 26.9325 4.92188Z" fill="#55FFBD"/>
</svg>
