<svg width="64" height="64" viewBox="0 0 64 64" fill="none" xmlns="http://www.w3.org/2000/svg">
<path d="M50.963 36.9024C49.3368 35.285 47.2003 34.2812 44.9172 34.0617C42.6341 33.8422 40.3455 34.4206 38.4409 35.6985C36.5363 36.9763 35.1333 38.8747 34.4708 41.0706C33.8082 43.2664 33.927 45.624 34.807 47.7421C35.687 49.8601 37.2737 51.6079 39.2972 52.6878C41.3206 53.7677 43.6558 54.113 45.9052 53.6651C48.1547 53.2172 50.1794 52.0036 51.6348 50.2309C53.0902 48.4582 53.8864 46.236 53.8878 43.9424C53.8919 42.6336 53.6353 41.337 53.1332 40.1284C52.631 38.9197 51.8933 37.8231 50.963 36.9024ZM50.0223 50.0288C48.6062 51.4261 46.7495 52.2893 44.7685 52.4715C42.7875 52.6537 40.8045 52.1436 39.1574 51.028C37.5102 49.9124 36.3006 48.2604 35.7346 46.3532C35.1686 44.446 35.2812 42.4016 36.0532 40.5681C36.8252 38.7346 38.2089 37.2254 39.9686 36.2975C41.7283 35.3695 43.7553 35.0803 45.7043 35.4789C47.6534 35.8775 49.404 36.9394 50.6581 38.4838C51.9121 40.0281 52.5921 41.9594 52.5823 43.9488C52.5794 45.0813 52.3517 46.2019 51.9122 47.2456C51.4728 48.2893 50.8303 49.2354 50.0223 50.0288Z" fill="#10159C"/>
<path d="M43.9425 38.4768C42.6767 38.4742 41.4493 38.9111 40.4697 39.7128C39.4902 40.5145 38.8193 41.6314 38.5715 42.8727C38.3238 44.114 38.5146 45.4028 39.1113 46.5191C39.7081 47.6354 40.6738 48.51 41.8436 48.9935C43.0134 49.4771 44.3148 49.5396 45.5256 49.1704C46.7363 48.8012 47.7814 48.0232 48.4824 46.9692C49.1834 45.9152 49.4968 44.6506 49.3692 43.3913C49.2415 42.1319 48.6807 40.9559 47.7825 40.064C46.7594 39.053 45.3809 38.4832 43.9425 38.4768ZM46.8609 46.8736C46.3778 47.3551 45.7833 47.71 45.1303 47.9068C44.4772 48.1036 43.7857 48.1363 43.1169 48.002C42.4482 47.8677 41.8229 47.5705 41.2965 47.1368C40.77 46.7031 40.3587 46.1463 40.0989 45.5156C39.8391 44.8849 39.7389 44.1999 39.8071 43.5212C39.8753 42.8426 40.1099 42.1912 40.49 41.6248C40.8701 41.0585 41.3841 40.5946 41.9863 40.2744C42.5885 39.9541 43.2604 39.7873 43.9425 39.7888C44.4853 39.7877 45.0229 39.8946 45.524 40.1034C46.025 40.3122 46.4795 40.6186 46.8609 41.0048C47.6351 41.7852 48.0696 42.8399 48.0696 43.9392C48.0696 45.0385 47.6351 46.0932 46.8609 46.8736Z" fill="#10159C"/>
<path d="M20.0514 30.0031C22.3504 29.9991 24.577 29.1982 26.3518 27.7368C28.1267 26.2753 29.34 24.2438 29.7851 21.9883C30.2302 19.7327 29.8796 17.3926 28.793 15.3665C27.7064 13.3404 25.951 11.7536 23.8258 10.8765C21.7007 9.99939 19.3371 9.88614 17.1378 10.5561C14.9385 11.226 13.0395 12.6376 11.7641 14.5505C10.4888 16.4634 9.91607 18.7593 10.1435 21.0471C10.3709 23.3349 11.3844 25.4731 13.0114 27.0975C13.9362 28.0209 15.034 28.7528 16.242 29.2514C17.45 29.75 18.7445 30.0054 20.0514 30.0031ZM13.965 13.9711C14.7628 13.1716 15.7104 12.5372 16.7537 12.1044C17.797 11.6715 18.9155 11.4487 20.045 11.4487C21.1745 11.4487 22.2929 11.6715 23.3362 12.1044C24.3795 12.5372 25.3272 13.1716 26.125 13.9711C27.3329 15.1746 28.1565 16.7095 28.4915 18.3814C28.8265 20.0533 28.6578 21.787 28.0067 23.3629C27.3556 24.9389 26.2515 26.2861 24.8342 27.2341C23.4169 28.1821 21.7501 28.6881 20.045 28.6881C18.3399 28.6881 16.6731 28.1821 15.2558 27.2341C13.8384 26.2861 12.7343 24.9389 12.0833 23.3629C11.4322 21.787 11.2635 20.0533 11.5984 18.3814C11.9334 16.7095 12.757 15.1746 13.965 13.9711Z" fill="#10159C"/>
<path d="M20.0512 25.5232C21.317 25.5258 22.5444 25.0889 23.524 24.2872C24.5035 23.4855 25.1744 22.3687 25.4222 21.1274C25.6699 19.886 25.4791 18.5972 24.8824 17.4809C24.2856 16.3646 23.3199 15.49 22.1501 15.0065C20.9803 14.523 19.6789 14.4605 18.4681 14.8297C17.2574 15.1989 16.2123 15.9769 15.5113 17.0309C14.8103 18.0848 14.4969 19.3494 14.6245 20.6088C14.7522 21.8681 15.313 23.0441 16.2112 23.936C17.2335 24.9482 18.6126 25.5182 20.0512 25.5232ZM17.1264 17.1264C17.9049 16.351 18.9589 15.9157 20.0576 15.9157C21.1563 15.9157 22.2103 16.351 22.9888 17.1264C23.7615 17.9076 24.1949 18.9621 24.1949 20.0608C24.1949 21.1596 23.7615 22.214 22.9888 22.9952C22.2105 23.7726 21.1554 24.209 20.0553 24.2084C18.9553 24.2078 17.9006 23.7703 17.1232 22.992C16.3458 22.2138 15.9094 21.1586 15.91 20.0586C15.9106 18.9586 16.3481 17.9038 17.1264 17.1264Z" fill="#10159C"/>
<path d="M52.7484 20.2495C52.8422 20.3404 52.9606 20.4019 53.0889 20.4266C53.2172 20.4513 53.3499 20.438 53.4707 20.3884C53.5916 20.3389 53.6954 20.2551 53.7694 20.1475C53.8435 20.0398 53.8845 19.9129 53.8876 19.7823V10.7711C53.8784 10.6044 53.808 10.4469 53.6899 10.3288C53.5718 10.2107 53.4143 10.1403 53.2476 10.1311H44.2172C44.08 10.1225 43.9436 10.1584 43.8284 10.2333C43.7131 10.3082 43.625 10.4183 43.5772 10.5471C43.5292 10.6681 43.5164 10.8002 43.5402 10.9281C43.5639 11.056 43.6234 11.1747 43.7116 11.2703L46.1436 13.6831L10.9436 48.8831C10.5325 49.2948 10.2527 49.8191 10.1394 50.3897C10.0261 50.9604 10.0844 51.5518 10.3069 52.0893C10.5295 52.6268 10.9063 53.0863 11.3898 53.4099C11.8733 53.7334 12.4418 53.9065 13.0236 53.9071C13.4072 53.907 13.787 53.8305 14.1408 53.6822C14.4946 53.5338 14.8153 53.3166 15.0844 53.0431L50.2844 17.8431L52.7484 20.2495ZM14.182 52.0895C13.8749 52.3822 13.467 52.5455 13.0428 52.5455C12.6186 52.5455 12.2106 52.3822 11.9036 52.0895C11.6019 51.7872 11.4324 51.3775 11.4324 50.9503C11.4324 50.5232 11.6019 50.1135 11.9036 49.8111L47.5708 14.1247C47.6339 14.0645 47.6841 13.992 47.7183 13.9116C47.7524 13.8313 47.7697 13.7448 47.7692 13.6575C47.772 13.5727 47.7556 13.4884 47.7212 13.4108C47.6869 13.3333 47.6354 13.2644 47.5708 13.2095L45.8236 11.4367H52.55V18.1695L50.79 16.4031C50.6644 16.28 50.4955 16.211 50.3196 16.211C50.1437 16.211 49.9748 16.28 49.8492 16.4031L14.182 52.0895Z" fill="#00214D"/>
</svg>
