<svg width="65" height="65" viewBox="0 0 65 65" fill="none" xmlns="http://www.w3.org/2000/svg">
<path d="M26.4063 39.1889V17.2656C26.4063 16.9963 26.2993 16.7379 26.1088 16.5475C25.9184 16.357 25.66 16.25 25.3907 16.25C21.9672 16.2496 18.5857 17.0031 15.4862 18.4568C12.3867 19.9105 9.64533 22.0289 7.45676 24.6614L6.09379 22.9968V16.25H4.06254V23.3594C4.06258 23.5937 4.14368 23.8209 4.29207 24.0023L6.19535 26.324C2.88171 31.1179 1.48022 36.9776 2.26614 42.7521C3.05205 48.5265 5.96859 53.7985 10.4429 57.5325C14.9172 61.2665 20.6259 63.1927 26.4478 62.9327C32.2697 62.6727 37.7841 60.2454 41.9078 56.1275C42.0982 55.937 42.2051 55.6788 42.2051 55.4095C42.2051 55.1401 42.0982 54.8819 41.9078 54.6914L26.4063 39.1889ZM25.3907 60.9375C21.5482 60.9395 17.7767 59.903 14.475 57.9374C11.1734 55.9719 8.46438 53.1505 6.63461 49.7717C4.80483 46.393 3.92233 42.5824 4.08047 38.7433C4.2386 34.9041 5.43148 31.179 7.53293 27.9622L13.4327 35.1731L15.0049 33.8873L8.76996 26.2702C10.6577 23.912 13.0254 21.9823 15.7158 20.609C18.4062 19.2357 21.3579 18.4502 24.375 18.3046V39.6094C24.3751 39.8787 24.4821 40.137 24.6726 40.3274L39.7364 55.3922C35.8185 58.9732 30.6986 60.9523 25.3907 60.9375Z" fill="#55FFBD"/>
<path d="M29.0641 33.4385C29.1874 33.4898 29.3196 33.5161 29.4531 33.5156C29.7225 33.5156 29.9808 33.4085 30.1712 33.2181L45.9702 17.418C46.1606 17.2275 46.2676 16.9692 46.2676 16.6999C46.2676 16.4306 46.1606 16.1723 45.9702 15.9819C44.1094 14.1291 41.9497 12.6029 39.582 11.4674L43.2839 4.06252H50.7812V2.03127H42.6562C42.4667 2.03023 42.2805 2.08229 42.119 2.18155C41.9575 2.28081 41.8269 2.4233 41.7422 2.59291L37.7132 10.6641C35.0746 9.66103 32.2759 9.14486 29.4531 9.14064C29.1838 9.14064 28.9254 9.24764 28.735 9.43811C28.5445 9.62858 28.4375 9.88691 28.4375 10.1563V32.5C28.4374 32.7009 28.497 32.8972 28.6085 33.0643C28.72 33.2313 28.8786 33.3615 29.0641 33.4385ZM30.4687 11.1952C32.633 11.3004 34.7685 11.7357 36.8012 12.4861L34.6328 16.8117L36.4508 17.7196L38.672 13.2773C40.5374 14.1687 42.2629 15.3276 43.7937 16.7172L30.4687 30.0483V11.1952Z" fill="#00214D"/>
<path d="M62.9688 56.875H51.7969V58.9062H62.9688V56.875Z" fill="#10159C"/>
<path d="M62.9688 60.9375H51.7969V62.9688H62.9688V60.9375Z" fill="#10159C"/>
<path d="M55.8592 44.4214V53.8281H57.8904V43.6718C57.8904 43.4546 57.8208 43.2431 57.6918 43.0683C57.5627 42.8935 57.381 42.7648 57.1734 42.7009L53.5334 41.5837C53.7208 40.4079 53.8192 39.2196 53.8279 38.029C53.8363 34.9604 53.2359 31.9205 52.0614 29.0855C50.8869 26.2505 49.1617 23.6766 46.9856 21.5129C46.7952 21.3225 46.5369 21.2156 46.2676 21.2156C45.9983 21.2156 45.74 21.3225 45.5495 21.5129L29.7505 37.31C29.5601 37.5004 29.4531 37.7587 29.4531 38.028C29.4531 38.2973 29.5601 38.5556 29.7505 38.7461L45.5495 54.5461C45.74 54.7365 45.9983 54.8435 46.2676 54.8435C46.5369 54.8435 46.7952 54.7365 46.9856 54.5461C50.0068 51.5286 52.136 47.7352 53.1383 43.5845L55.8592 44.4214ZM46.2513 52.3747L31.9046 38.028L46.2513 23.6823C49.8327 27.6 51.8119 32.72 51.7967 38.028C51.7892 39.0137 51.7146 39.9978 51.5732 40.9733L43.9703 38.6374L43.3731 40.5793L51.1934 42.9863C50.3711 46.4851 48.6702 49.7164 46.2513 52.3747Z" fill="#10159C"/>
<path d="M16.25 3.04688H3.04688V5.07812H16.25V3.04688Z" fill="white"/>
<path d="M16.25 7.10938H3.04688V9.14062H16.25V7.10938Z" fill="white"/>
<path d="M10.1562 11.1719H3.04688V13.2031H10.1562V11.1719Z" fill="white"/>
<path d="M62.9688 2.03125H53.8281V4.0625H62.9688V2.03125Z" fill="#00214D"/>
<path d="M62.9688 6.09375H53.8281V8.125H62.9688V6.09375Z" fill="#00214D"/>
<path d="M58.9062 10.1562H53.8281V12.1875H58.9062V10.1562Z" fill="#00214D"/>
</svg>
