<svg width="53" height="53" viewBox="0 0 53 53" fill="none" xmlns="http://www.w3.org/2000/svg">
<g clip-path="url(#clip0)">
<path d="M45.8156 34.8623L40.1623 4.47562C40.0445 3.94562 39.6323 3.59229 39.0434 3.59229H7.36117C7.24339 3.59229 7.06672 3.59229 6.83117 3.59229C5.5945 3.59229 3.29784 3.82784 1.70784 5.59451C0.41228 7.00784 -0.11772 8.95117 0.117836 11.4245C0.471169 15.7823 3.71006 18.4323 8.65672 18.4323H8.71561L14.1334 48.5245C14.2512 49.0545 14.6634 49.4078 15.2523 49.4078H46.0512C49.7612 49.4078 52.8823 46.5812 53.0589 42.9301C53.0589 42.8123 53.0589 42.6356 53.0589 42.5178C53.0001 38.3367 48.819 35.1567 45.8156 34.8623ZM43.5778 34.8623L20.3756 34.5678C19.4334 34.5678 18.6089 34.9801 18.0201 35.7456C17.3134 36.6878 17.0189 38.0423 17.3134 39.2201C17.5489 40.0445 17.9023 40.7512 18.2556 41.4578C18.6089 42.1645 18.9623 42.8123 19.0801 43.4601C19.2567 44.6967 17.2545 45.5212 15.9001 45.9334L10.7178 17.3723C10.7178 17.2545 10.7178 17.1956 10.7178 17.0778L8.59784 5.77117H38.1601L43.5778 34.8623ZM2.23784 11.2478C2.06117 9.3634 2.4145 8.00895 3.23895 7.06673C4.12228 6.06562 5.47672 5.83006 6.30117 5.77117L8.2445 16.1945C6.00672 16.1356 2.59117 15.3112 2.23784 11.2478ZM50.7623 42.8123C50.6445 45.2856 48.5245 47.229 45.9923 47.229H18.6089C20.2578 46.4045 21.5534 45.0501 21.3178 43.1067C21.2001 42.0467 20.6701 41.1634 20.2578 40.339C19.9634 39.7501 19.6101 39.2201 19.4923 38.6312C19.3745 38.1601 19.4923 37.4534 19.7867 37.1001C20.0223 36.8056 20.2578 36.8056 20.3756 36.8056L44.6378 37.1001C44.7556 37.159 44.9323 37.159 45.1089 37.1001C45.1089 37.1001 45.1678 37.1001 45.2267 37.1001H45.6978C47.5823 37.3356 50.7623 39.5734 50.7623 42.5178C50.7623 42.6356 50.7623 42.7534 50.7623 42.8123Z" fill="#00214D"/>
<path d="M17.1951 15.0757H33.684C34.2728 15.0757 34.8028 14.6046 34.8028 13.9568C34.8028 13.3679 34.3317 12.8379 33.684 12.8379H17.1951C16.6062 12.8379 16.0762 13.309 16.0762 13.9568C16.1351 14.6046 16.6062 15.0757 17.1951 15.0757Z" fill="#10159C"/>
<path d="M17.2549 19.6101C17.2549 20.199 17.726 20.729 18.3738 20.729H34.8627C35.4516 20.729 35.9816 20.2579 35.9816 19.6101C35.9816 19.0212 35.5104 18.4912 34.8627 18.4912H18.3738C17.7849 18.4912 17.2549 18.9623 17.2549 19.6101Z" fill="#10159C"/>
<path d="M19.2566 24.0857C18.6677 24.0857 18.1377 24.5568 18.1377 25.2046C18.1377 25.7935 18.6088 26.3235 19.2566 26.3235H35.7455C36.3344 26.3235 36.8644 25.8524 36.8644 25.2046C36.8644 24.6157 36.3933 24.0857 35.7455 24.0857H19.2566Z" fill="#10159C"/>
</g>
<defs>
<clipPath id="clip0">
<rect width="53" height="53" fill="white"/>
</clipPath>
</defs>
</svg>
