<svg width="63" height="63" viewBox="0 0 63 63" fill="none" xmlns="http://www.w3.org/2000/svg">
<path d="M30.9537 48.069C31.119 48.1792 31.31 48.2344 31.5 48.2344C31.69 48.2344 31.881 48.1792 32.0463 48.069L39.4754 43.1166C42.4945 41.1045 44.2969 37.736 44.2969 34.1066V20.6719C44.2969 20.1275 43.8559 19.6875 43.3125 19.6875H42.9453C39.0009 19.6875 35.2938 18.1509 32.5041 15.3622L32.196 15.054C31.8111 14.6692 31.1889 14.6692 30.804 15.054L30.4959 15.3622C27.7062 18.1509 23.9981 19.6875 20.0547 19.6875H19.6875C19.1441 19.6875 18.7031 20.1275 18.7031 20.6719V34.1066C18.7031 37.736 20.5055 41.1036 23.5246 43.1156L30.9537 48.069ZM20.6719 34.1066V21.6444C24.7314 21.4988 28.537 19.9119 31.5 17.1301C34.463 19.9119 38.2686 21.4988 42.3281 21.6444V34.1066C42.3281 37.0765 40.8535 39.8308 38.3828 41.4776L31.5 46.0668L24.6172 41.4786C22.1465 39.8317 20.6719 37.0765 20.6719 34.1066Z" fill="#00214D"/>
<path d="M24.6094 22.6406H22.6406V24.6094H24.6094V22.6406Z" fill="#00214D"/>
<path d="M40.3594 22.6406H38.3906V24.6094H40.3594V22.6406Z" fill="#00214D"/>
<path d="M25.5938 40.3594H37.4062C37.9496 40.3594 38.3906 39.9194 38.3906 39.375V33.4688C38.3906 32.9244 37.9496 32.4844 37.4062 32.4844H36.4219V29.5312C36.4219 26.8173 34.2139 24.6094 31.5 24.6094C28.7861 24.6094 26.5781 26.8173 26.5781 29.5312V32.4844H25.5938C25.0504 32.4844 24.6094 32.9244 24.6094 33.4688V39.375C24.6094 39.9194 25.0504 40.3594 25.5938 40.3594ZM28.5469 29.5312C28.5469 27.9031 29.8718 26.5781 31.5 26.5781C33.1282 26.5781 34.4531 27.9031 34.4531 29.5312V32.4844H28.5469V29.5312ZM26.5781 34.4531H36.4219V38.3906H26.5781V34.4531Z" fill="#00214D"/>
<path d="M31.5 0.984375C25.3772 0.984375 19.5044 2.77791 14.4624 6.17991L11.5241 3.24155C11.2425 2.95903 10.8193 2.87339 10.4511 3.02794C10.0839 3.17953 9.84375 3.53981 9.84375 3.9375V14.7656C9.84375 15.31 10.2847 15.75 10.8281 15.75H21.6562C22.0539 15.75 22.4132 15.5098 22.5658 15.1426C22.7184 14.7745 22.6337 14.3512 22.3522 14.0697L20.1738 11.8912C23.6063 9.90478 27.4975 8.85938 31.5 8.85938C43.9838 8.85938 54.1406 19.0152 54.1406 31.5C54.1406 43.9848 43.9838 54.1406 31.5 54.1406C19.0162 54.1406 8.85938 43.9848 8.85938 31.5C8.85938 26.7228 10.329 22.1573 13.1079 18.2936L11.5103 17.1439C8.48827 21.3442 6.89062 26.3094 6.89062 31.5C6.89062 45.0696 17.9304 56.1094 31.5 56.1094C45.0696 56.1094 56.1094 45.0696 56.1094 31.5C56.1094 17.9304 45.0696 6.89062 31.5 6.89062C26.7041 6.89062 22.0559 8.27072 18.0584 10.8832C17.8103 11.0447 17.6479 11.3115 17.6174 11.6048C17.5868 11.9001 17.6912 12.1935 17.9009 12.4031L19.279 13.7812H11.8125V6.31378L13.6523 8.15358C13.9919 8.49417 14.5284 8.53847 14.9212 8.25792C19.7771 4.78702 25.5101 2.95312 31.5 2.95312C47.2411 2.95312 60.0469 15.7598 60.0469 31.5C60.0469 47.2402 47.2411 60.0469 31.5 60.0469C15.7589 60.0469 2.95312 47.2402 2.95312 31.5C2.95312 25.264 4.9268 19.34 8.66152 14.3699L7.0875 13.1877C3.09487 18.5023 0.984375 24.8348 0.984375 31.5C0.984375 48.3269 14.6741 62.0156 31.5 62.0156C48.3259 62.0156 62.0156 48.3269 62.0156 31.5C62.0156 14.6731 48.3259 0.984375 31.5 0.984375Z" fill="#55FFBD"/>
</svg>
