<svg width="62" height="62" viewBox="0 0 62 62" fill="none" xmlns="http://www.w3.org/2000/svg">
<path d="M23.5328 13.7579C23.4056 13.7599 23.28 13.787 23.1633 13.8375C23.0465 13.888 22.9408 13.961 22.8523 14.0524C22.7637 14.1437 22.694 14.2516 22.6472 14.3699C22.6003 14.4882 22.5772 14.6146 22.5792 14.7418V15.6842C22.5774 15.8126 22.6011 15.94 22.649 16.0592C22.6969 16.1783 22.7679 16.2867 22.8581 16.3782C22.9482 16.4696 23.0556 16.5423 23.1741 16.5918C23.2925 16.6414 23.4196 16.6668 23.548 16.6668C23.6764 16.6668 23.8035 16.6414 23.9219 16.5918C24.0404 16.5423 24.1478 16.4696 24.2379 16.3782C24.328 16.2867 24.3991 16.1783 24.447 16.0592C24.4948 15.94 24.5186 15.8126 24.5167 15.6842V14.7418C24.5188 14.612 24.4947 14.4832 24.446 14.3629C24.3972 14.2426 24.3249 14.1334 24.2331 14.0416C24.1413 13.9499 24.032 13.8774 23.9117 13.8287C23.7915 13.7799 23.6626 13.7559 23.5328 13.7579Z" fill="#10159C"/>
<path d="M23.5328 18.6017C23.4056 18.6037 23.28 18.6306 23.1633 18.6811C23.0465 18.7316 22.9408 18.8047 22.8523 18.8961C22.7637 18.9875 22.694 19.0954 22.6472 19.2137C22.6003 19.332 22.5772 19.4583 22.5792 19.5855V20.5279C22.5774 20.6563 22.6011 20.7838 22.649 20.9029C22.6969 21.0221 22.7679 21.1304 22.8581 21.2218C22.9482 21.3132 23.0556 21.3859 23.1741 21.4355C23.2925 21.485 23.4196 21.5105 23.548 21.5105C23.6764 21.5105 23.8035 21.485 23.9219 21.4355C24.0404 21.3859 24.1478 21.3132 24.2379 21.2218C24.328 21.1304 24.3991 21.0221 24.447 20.9029C24.4948 20.7838 24.5186 20.6563 24.5167 20.5279V19.5855C24.5188 19.4558 24.4947 19.3269 24.446 19.2066C24.3972 19.0863 24.3249 18.977 24.2331 18.8853C24.1413 18.7935 24.032 18.7211 23.9117 18.6724C23.7915 18.6237 23.6626 18.5997 23.5328 18.6017Z" fill="#10159C"/>
<path d="M27.4243 17.6191C27.4223 17.4919 27.3953 17.3662 27.3448 17.2495C27.2943 17.1327 27.2212 17.0269 27.1299 16.9384C27.0385 16.8498 26.9306 16.7802 26.8123 16.7333C26.694 16.6865 26.5677 16.6634 26.4404 16.6654H25.498C25.3696 16.6635 25.2421 16.6871 25.1228 16.7349C25.0036 16.7827 24.8951 16.8538 24.8035 16.944C24.712 17.0341 24.6394 17.1415 24.5898 17.26C24.5402 17.3784 24.5146 17.5057 24.5146 17.6342C24.5146 17.7626 24.5402 17.8898 24.5898 18.0083C24.6394 18.1268 24.712 18.2341 24.8035 18.3243C24.8951 18.4144 25.0036 18.4855 25.1228 18.5333C25.2421 18.5811 25.3696 18.6047 25.498 18.6028H26.4404C26.5702 18.6048 26.699 18.5808 26.8193 18.5321C26.9396 18.4834 27.0488 18.411 27.1406 18.3192C27.2324 18.2275 27.3048 18.1182 27.3535 17.9979C27.4022 17.8776 27.4263 17.7488 27.4243 17.6191Z" fill="#10159C"/>
<path d="M22.5805 17.6191C22.5786 17.4919 22.5516 17.3662 22.501 17.2495C22.4505 17.1327 22.3775 17.0269 22.2861 16.9384C22.1948 16.8498 22.0869 16.7802 21.9686 16.7333C21.8503 16.6865 21.7239 16.6634 21.5967 16.6654H20.6543C20.5259 16.6635 20.3983 16.6871 20.2791 16.7349C20.1599 16.7827 20.0514 16.8538 19.9599 16.944C19.8683 17.0341 19.7956 17.1415 19.746 17.26C19.6964 17.3784 19.6709 17.5057 19.6709 17.6342C19.6709 17.7626 19.6964 17.8898 19.746 18.0083C19.7956 18.1268 19.8683 18.2341 19.9599 18.3243C20.0514 18.4144 20.1599 18.4855 20.2791 18.5333C20.3983 18.5811 20.5259 18.6047 20.6543 18.6028H21.5967C21.7265 18.6048 21.8553 18.5808 21.9756 18.5321C22.0959 18.4834 22.2051 18.411 22.2969 18.3192C22.3887 18.2275 22.461 18.1182 22.5098 17.9979C22.5585 17.8776 22.5826 17.7488 22.5805 17.6191Z" fill="#10159C"/>
<path d="M50.9717 47.6585C50.9717 47.9154 50.8696 48.1619 50.688 48.3435C50.5063 48.5252 50.2599 48.6272 50.0029 48.6272C49.746 48.6272 49.4996 48.5252 49.3179 48.3435C49.1363 48.1619 49.0342 47.9154 49.0342 47.6585C49.0342 47.4015 49.1363 47.1552 49.3179 46.9735C49.4996 46.7918 49.746 46.6897 50.0029 46.6897C50.2599 46.6897 50.5063 46.7918 50.688 46.9735C50.8696 47.1552 50.9717 47.4015 50.9717 47.6585Z" fill="black"/>
<path fill-rule="evenodd" clip-rule="evenodd" d="M55.3022 29.8321L59.5242 29.3319C59.6553 29.3178 59.782 29.2794 59.8973 29.2188C60.0125 29.1582 60.1138 29.0767 60.1954 28.979C60.2769 28.8813 60.3372 28.7693 60.3725 28.6495C60.4079 28.5297 60.4177 28.4045 60.4014 28.2811C60.385 28.1577 60.3429 28.0385 60.2774 27.9306C60.2119 27.8226 60.1244 27.728 60.0198 27.6521C59.9153 27.5763 59.7958 27.5207 59.6683 27.4886C59.5408 27.4566 59.4079 27.4487 59.2772 27.4654L55.0529 27.9655C54.0213 28.0871 52.9781 27.8879 52.0751 27.4009L48.3791 25.4051C48.2279 25.324 48.0568 25.2816 47.8828 25.282H43.4802C43.0516 25.282 42.7215 24.9737 42.7163 24.5643L42.7094 24.1118C42.7044 23.7171 43.019 23.4176 43.4322 23.4176H50.1379C50.2723 23.4228 50.4065 23.4024 50.5323 23.3576C50.6581 23.3127 50.773 23.2443 50.8701 23.1566C50.9672 23.0688 51.0444 22.9633 51.0971 22.8467C51.1499 22.7301 51.1771 22.6046 51.1771 22.4779C51.1771 22.3511 51.1499 22.2256 51.0971 22.109C51.0444 21.9924 50.9672 21.8871 50.8701 21.7993C50.773 21.7115 50.6581 21.643 50.5323 21.5982C50.4065 21.5533 50.2723 21.5329 50.1379 21.5382H43.4322C41.9286 21.5382 40.6968 22.7189 40.715 24.1354L40.7196 24.5879C40.7379 26.0028 41.9784 27.1615 43.4802 27.1615H47.6175L51.0825 29.0345C52.3605 29.7251 53.8412 30.0046 55.3022 29.832V29.8321Z" fill="#55FFBD"/>
<path fill-rule="evenodd" clip-rule="evenodd" d="M35.8934 26.4653L42.0594 24.3745C42.1862 24.3353 42.3034 24.2727 42.4041 24.1901C42.5047 24.1075 42.5868 24.0068 42.6454 23.8938C42.704 23.7808 42.7379 23.6579 42.7453 23.5323C42.7526 23.4068 42.7331 23.2811 42.688 23.1627C42.6429 23.0443 42.573 22.9357 42.4826 22.8432C42.3921 22.7508 42.2829 22.6763 42.1614 22.6243C42.0399 22.5723 41.9085 22.5439 41.7751 22.5405C41.6417 22.5372 41.509 22.5591 41.3847 22.605L35.2164 24.6956C35.2041 24.7003 35.1919 24.7052 35.1798 24.7103C34.8223 24.8472 34.4418 24.7107 34.2604 24.3632C34.26 24.3624 34.2585 24.3639 34.2581 24.3632C34.2566 24.3583 34.255 24.3534 34.2535 24.3486C34.0532 23.9634 34.2242 23.5177 34.6149 23.3506L43.1618 19.7015C45.2268 18.8192 47.5562 18.7599 49.9362 19.1106L59.2767 20.49C59.4063 20.5092 59.5386 20.5041 59.6661 20.475C59.7936 20.4459 59.9137 20.3934 60.0197 20.3205C60.1257 20.2477 60.2154 20.1559 60.2837 20.0504C60.352 19.9448 60.3976 19.8277 60.4179 19.7055C60.4382 19.5834 60.4327 19.4586 60.4019 19.3385C60.371 19.2183 60.3153 19.1051 60.238 19.0053C60.1607 18.9054 60.0633 18.8208 59.9513 18.7564C59.8394 18.692 59.715 18.6491 59.5854 18.63L50.2449 17.2527C47.6361 16.8682 44.8848 16.8997 42.3384 17.9877L33.7915 21.639C32.3763 22.2439 31.7768 23.8623 32.4604 25.176C32.4619 25.1784 32.4634 25.1808 32.4649 25.1832C33.0884 26.3862 34.6152 26.9518 35.9322 26.4463L35.8934 26.4653Z" fill="#55FFBD"/>
<path d="M24.8155 27.315C24.8155 27.5719 24.7134 27.8182 24.5317 27.9999C24.35 28.1816 24.1036 28.2837 23.8467 28.2837C23.5898 28.2837 23.3434 28.1816 23.1617 27.9999C22.98 27.8182 22.8779 27.5719 22.8779 27.315C22.8779 27.058 22.98 26.8116 23.1617 26.6299C23.3434 26.4482 23.5898 26.3462 23.8467 26.3462C24.1036 26.3462 24.35 26.4482 24.5317 26.6299C24.7134 26.8116 24.8155 27.058 24.8155 27.315Z" fill="#10159C"/>
<path d="M30.4414 12.4002C30.4414 12.6571 30.3393 12.9034 30.1576 13.0851C29.9759 13.2668 29.7295 13.3689 29.4726 13.3689C29.2157 13.3689 28.9693 13.2668 28.7877 13.0851C28.606 12.9034 28.5039 12.6571 28.5039 12.4002C28.5039 12.1432 28.606 11.8969 28.7877 11.7152C28.9693 11.5335 29.2157 11.4314 29.4726 11.4314C29.7295 11.4314 29.9759 11.5335 30.1576 11.7152C30.3393 11.8969 30.4414 12.1432 30.4414 12.4002Z" fill="#10159C"/>
<path d="M16.8525 22.0877C16.8525 22.2149 16.8275 22.3409 16.7788 22.4584C16.7301 22.576 16.6588 22.6827 16.5688 22.7726C16.4789 22.8626 16.372 22.934 16.2545 22.9827C16.137 23.0314 16.011 23.0564 15.8837 23.0564C15.7565 23.0564 15.6306 23.0314 15.5131 22.9827C15.3955 22.934 15.2887 22.8626 15.1987 22.7726C15.1088 22.6827 15.0374 22.5759 14.9887 22.4584C14.94 22.3409 14.915 22.2149 14.915 22.0877C14.915 21.8307 15.0171 21.5843 15.1988 21.4026C15.3805 21.2209 15.6268 21.1189 15.8837 21.1189C16.1407 21.1189 16.3871 21.2209 16.5688 21.4026C16.7504 21.5843 16.8525 21.8307 16.8525 22.0877Z" fill="#10159C"/>
<path d="M9.00159 20.5392C8.87438 20.5412 8.7488 20.5682 8.63202 20.6187C8.51525 20.6693 8.40955 20.7422 8.321 20.8336C8.23245 20.925 8.16275 21.0329 8.11591 21.1512C8.06906 21.2695 8.04598 21.3958 8.04797 21.523V22.4654C8.04614 22.5938 8.06989 22.7213 8.11775 22.8404C8.16561 22.9595 8.23667 23.068 8.32681 23.1594C8.41695 23.2509 8.52436 23.3234 8.64281 23.373C8.76125 23.4225 8.88834 23.448 9.01674 23.448C9.14513 23.448 9.27222 23.4225 9.39066 23.373C9.50911 23.3234 9.61652 23.2509 9.70666 23.1594C9.7968 23.068 9.86786 22.9595 9.91572 22.8404C9.96358 22.7213 9.98733 22.5938 9.9855 22.4654V21.523C9.98753 21.3933 9.96344 21.2644 9.91471 21.1441C9.86599 21.0238 9.79362 20.9147 9.70185 20.8229C9.61008 20.7311 9.50079 20.6586 9.3805 20.6099C9.26021 20.5612 9.13136 20.5372 9.00159 20.5392Z" fill="#10159C"/>
<path d="M9.00159 25.3829C8.87438 25.3849 8.7488 25.412 8.63202 25.4625C8.51525 25.513 8.40955 25.5861 8.321 25.6775C8.23245 25.7688 8.16275 25.8767 8.11591 25.995C8.06906 26.1133 8.04598 26.2397 8.04797 26.3669V27.3093C8.04614 27.4377 8.06989 27.5651 8.11775 27.6843C8.16561 27.8034 8.23667 27.9118 8.32681 28.0032C8.41695 28.0946 8.52436 28.1673 8.64281 28.2168C8.76125 28.2664 8.88834 28.2919 9.01674 28.2919C9.14513 28.2919 9.27222 28.2664 9.39066 28.2168C9.50911 28.1673 9.61652 28.0946 9.70666 28.0032C9.7968 27.9118 9.86786 27.8034 9.91572 27.6843C9.96358 27.5651 9.98733 27.4377 9.9855 27.3093V26.3669C9.98753 26.2371 9.96344 26.1083 9.91471 25.988C9.86599 25.8677 9.79362 25.7584 9.70185 25.6666C9.61008 25.5749 9.50079 25.5025 9.3805 25.4538C9.26021 25.405 9.13136 25.3809 9.00159 25.3829Z" fill="#10159C"/>
<path d="M12.893 24.4002C12.8911 24.273 12.8641 24.1475 12.8135 24.0307C12.763 23.9139 12.69 23.8082 12.5986 23.7196C12.5073 23.6311 12.3994 23.5614 12.2811 23.5146C12.1628 23.4677 12.0364 23.4447 11.9092 23.4467H10.9668C10.8384 23.4447 10.7108 23.4683 10.5916 23.5162C10.4724 23.564 10.3639 23.6351 10.2724 23.7252C10.1808 23.8154 10.1081 23.9227 10.0585 24.0412C10.0089 24.1597 9.9834 24.287 9.9834 24.4154C9.9834 24.5439 10.0089 24.671 10.0585 24.7895C10.1081 24.908 10.1808 25.0154 10.2724 25.1055C10.3639 25.1957 10.4724 25.2667 10.5916 25.3146C10.7108 25.3624 10.8384 25.386 10.9668 25.3841H11.9092C12.039 25.3861 12.1678 25.3621 12.2881 25.3133C12.4084 25.2646 12.5176 25.1922 12.6094 25.1005C12.7012 25.0087 12.7735 24.8994 12.8223 24.7791C12.871 24.6588 12.8951 24.53 12.893 24.4002Z" fill="#10159C"/>
<path d="M8.04924 24.4002C8.04726 24.273 8.02025 24.1475 7.96974 24.0307C7.91922 23.9139 7.84623 23.8082 7.75487 23.7196C7.66351 23.6311 7.5556 23.5614 7.43731 23.5146C7.31901 23.4677 7.19261 23.4447 7.06539 23.4467H6.12299C5.99456 23.4447 5.867 23.4683 5.74778 23.5162C5.62856 23.564 5.52006 23.6351 5.42855 23.7252C5.33704 23.8154 5.26439 23.9227 5.21479 24.0412C5.16519 24.1597 5.13965 24.287 5.13965 24.4154C5.13965 24.5439 5.16519 24.671 5.21479 24.7895C5.26439 24.908 5.33704 25.0154 5.42855 25.1055C5.52006 25.1957 5.62856 25.2667 5.74778 25.3146C5.867 25.3624 5.99456 25.386 6.12299 25.3841H7.06539C7.19515 25.3861 7.32401 25.3621 7.44429 25.3133C7.56457 25.2646 7.67383 25.1922 7.76559 25.1005C7.85736 25.0087 7.92978 24.8994 7.97851 24.7791C8.02724 24.6588 8.05126 24.53 8.04924 24.4002Z" fill="#10159C"/>
<path d="M11.9102 15.697C11.9102 15.8243 11.8851 15.9502 11.8364 16.0678C11.7878 16.1853 11.7164 16.2921 11.6264 16.3821C11.5365 16.4721 11.4297 16.5434 11.3122 16.5921C11.1946 16.6407 11.0686 16.6658 10.9414 16.6658C10.8142 16.6658 10.6882 16.6407 10.5707 16.5921C10.4531 16.5434 10.3464 16.4721 10.2564 16.3821C10.1665 16.2921 10.0951 16.1853 10.0464 16.0678C9.99772 15.9502 9.97265 15.8243 9.97266 15.697C9.97266 15.4401 10.0747 15.1936 10.2564 15.012C10.4381 14.8303 10.6845 14.7283 10.9414 14.7283C11.1983 14.7283 11.4448 14.8303 11.6264 15.012C11.8081 15.1936 11.9102 15.4401 11.9102 15.697Z" fill="#10159C"/>
<path fill-rule="evenodd" clip-rule="evenodd" d="M44.0755 31.5858C43.3529 31.3053 42.5278 31.2944 41.7633 31.6298L31.0352 36.3071L31.8072 38.0819L42.5391 33.4046C43.0945 33.1629 43.7569 33.4265 44.0452 34.0065C44.2433 34.295 44.1655 34.7766 44.106 34.9713L45.9299 35.6223C46.2078 34.8423 46.1782 33.9433 45.7823 33.1438C45.7817 33.1426 45.7829 33.1438 45.7823 33.1438C45.5221 32.7132 45.1142 32.0082 44.0756 31.5873L44.0755 31.5858Z" fill="#00214D"/>
<path fill-rule="evenodd" clip-rule="evenodd" d="M51.5573 35.5555C49.0983 36.4898 38.7933 40.1532 38.7933 40.1532C38.6732 40.1957 38.5627 40.2614 38.468 40.3466C38.3734 40.4317 38.2965 40.5348 38.2417 40.6497C38.1868 40.7646 38.1552 40.8892 38.1485 41.0163C38.1418 41.1435 38.1602 41.2707 38.2027 41.3907C38.2452 41.5108 38.3109 41.6213 38.3961 41.7159C38.4813 41.8105 38.5844 41.8875 38.6993 41.9423C38.8142 41.9971 38.9388 42.0287 39.066 42.0354C39.1931 42.042 39.3204 42.0236 39.4404 41.9811C39.4404 41.9811 49.6781 38.3422 52.2423 37.3681C52.7823 37.163 53.6174 37.576 53.7862 37.9356C53.9709 38.3281 53.9288 38.6517 53.7824 38.9762C53.6359 39.3006 53.3315 39.5723 53.1958 39.6346C48.2183 41.9357 38.1953 46.4538 38.1953 46.4538C35.4215 47.6957 31.2554 48.8114 27.3461 48.607C23.2407 48.3924 19.1405 45.2391 14.3474 44.0053C10.4073 42.991 2.68079 42.0452 2.68079 42.0452C2.55298 42.0262 2.42264 42.0329 2.29747 42.065C2.17231 42.0971 2.05486 42.1539 1.95198 42.2321C1.8491 42.3103 1.7629 42.4082 1.69845 42.5202C1.634 42.6322 1.59261 42.756 1.57671 42.8842C1.56081 43.0125 1.57068 43.1426 1.60582 43.2669C1.64095 43.3913 1.70064 43.5073 1.7813 43.6083C1.86196 43.7092 1.96198 43.793 2.07551 43.8547C2.18904 43.9164 2.31376 43.9547 2.44234 43.9675C2.44234 43.9675 10.2437 44.9506 13.863 45.8824C18.0933 46.9713 22.2866 50.2815 27.2476 50.5407C31.5862 50.767 35.9594 49.578 38.9899 48.2209C38.9899 48.2209 49.0096 43.7057 54.0093 41.3942C54.679 41.0844 55.2118 40.5223 55.5495 39.7747C55.8873 39.0269 55.9757 38.041 55.5378 37.1106C54.8625 35.6735 53.1415 34.9529 51.5568 35.5552L51.5573 35.5555Z" fill="#00214D"/>
<path fill-rule="evenodd" clip-rule="evenodd" d="M48.889 33.5613C48.1717 33.286 47.353 33.2706 46.5957 33.5833L34.9102 38.2417L35.6254 40.0392L47.3147 35.3846C47.912 35.1467 48.5595 35.3846 48.8473 35.9748C48.8486 35.9748 48.8493 35.9748 48.8512 35.9748C49.0064 36.2927 49.0203 36.6317 48.9119 36.936L50.7359 37.587C51.0142 36.806 50.9857 35.9053 50.5883 35.1047C50.3972 34.7694 49.9745 33.9598 48.8893 33.564L48.889 33.5613Z" fill="#00214D"/>
<path fill-rule="evenodd" clip-rule="evenodd" d="M38.1499 30.443C37.4178 30.1816 36.6004 30.1494 35.834 30.4943L26.9941 34.4375L27.9704 36.1404L36.6286 32.2615C37.1709 32.0184 37.8349 32.2835 38.1234 32.8671C38.1272 32.8671 38.1314 32.889 38.1351 32.889C38.2088 33.0421 38.2601 33.3585 38.2601 33.3585L40.2619 33.2677C40.2619 33.2677 40.0631 32.4082 39.8645 32.0075C39.5284 31.2184 38.5857 30.6004 38.15 30.4453L38.1499 30.443Z" fill="#00214D"/>
<path fill-rule="evenodd" clip-rule="evenodd" d="M17.3409 30.7194C17.327 30.7191 17.3131 30.7191 17.2992 30.7194L8.24743 32.3389H2.55982C2.4316 32.3373 2.30436 32.3612 2.18545 32.4092C2.06653 32.4572 1.95833 32.5284 1.86711 32.6185C1.77588 32.7086 1.70345 32.8159 1.65402 32.9343C1.60459 33.0526 1.5791 33.1795 1.5791 33.3077C1.5791 33.4359 1.60459 33.5629 1.65402 33.6812C1.70345 33.7995 1.77588 33.9069 1.86711 33.997C1.95833 34.0871 2.06653 34.1582 2.18545 34.2062C2.30436 34.2541 2.4316 34.278 2.55982 34.2764H8.33068C8.38929 34.2744 8.44759 34.2671 8.50488 34.2545L17.6134 32.6274C18.9479 32.4495 20.3152 32.732 21.4997 33.4144L26.1278 36.0784C26.1727 36.1041 26.2195 36.1262 26.2679 36.1444L33.9649 39.0505C34.6193 39.2973 34.8626 39.5493 35.0207 39.834C35.1691 40.1013 35.2307 40.496 35.2477 40.9957C35.2045 41.3684 35.0927 41.5918 34.8579 41.7601C34.6157 41.9329 34.1663 42.0734 33.4388 42.0214L22.9377 40.0991C22.8098 40.0686 22.677 40.0646 22.5474 40.0871C22.4178 40.1097 22.2942 40.1583 22.184 40.2302C22.0739 40.302 21.9795 40.3956 21.9066 40.5051C21.8338 40.6147 21.784 40.7379 21.7604 40.8673C21.7367 40.9967 21.7397 41.1295 21.769 41.2577C21.7984 41.3859 21.8535 41.5069 21.9311 41.6131C22.0087 41.7193 22.1071 41.8085 22.2203 41.8755C22.3335 41.9424 22.4592 41.9857 22.5896 42.0025L33.1702 43.9439C33.2026 43.9529 33.2354 43.9603 33.2686 43.9659C34.3301 44.0494 35.2687 43.8589 35.9856 43.3448C36.7025 42.8315 37.118 42.0055 37.1966 41.1501C37.1998 41.1146 37.2011 41.0788 37.2004 41.0432C37.1865 40.3563 37.1092 39.6085 36.7161 38.9013C36.323 38.1946 35.6153 37.6122 34.65 37.2475L27.0248 34.3678L22.4649 31.7416C20.9208 30.8526 19.1215 30.471 17.3411 30.7124L17.3409 30.7194Z" fill="#00214D"/>
</svg>
