<svg width="64" height="64" viewBox="0 0 64 64" fill="none" xmlns="http://www.w3.org/2000/svg">
<path d="M32 1.69995L18 5.99995V12.9C18 20.6 21.6 28 27.8 32.7L32 36L36.2 32.7C42.4 28 46 20.6 46 12.9V5.99995L32 1.69995Z" fill="#55FFBD"/>
<path d="M57.5004 29.4L52.1004 36.8C51.8004 37.3 51.3004 37.6 50.7004 37.8L46.0004 39.5L43.0004 42.3L45.8004 34C46.0004 33.4 45.7004 32.6 45.1004 32.4C44.5004 32.2 43.9004 32.4 43.5004 32.8L39.1004 39.6C38.8004 40 38.4004 40.4 38.0004 40.6C37.2004 41 35.9004 42.1 35.9004 44.6C35.9004 45.8 36.5004 46.9 37.2004 47.9C37.6004 48.4 37.8004 49.1 37.7004 49.8L37.0004 62H46.0004L45.5004 48.4C45.5004 47.3 46.0004 46.3 46.9004 45.8L53.0004 41.9C53.8004 41.4 54.4004 40.7 54.8004 39.8L59.2004 30.5C59.5004 29.9 59.0004 29.1 58.3004 29.1C58.0004 29 57.7004 29.1 57.5004 29.4Z" fill="#00214D"/>
<path d="M27.9998 44.7C27.9998 42.2 26.6998 41.1 25.8998 40.7C25.4998 40.5 25.0998 40.1 24.7998 39.7L20.3998 32.9C20.0998 32.4 19.3998 32.2 18.7998 32.5C18.1998 32.8 17.7998 33.5 18.0998 34.1L20.8998 42.4L17.8998 39.6L13.1998 37.9C12.5998 37.7 12.1998 37.3 11.7998 36.9L6.39976 29.5C6.29976 29.1 5.99975 29 5.69975 29C4.99975 29 4.49976 29.7 4.79976 30.4L9.19975 39.7C9.59975 40.6 10.1998 41.3 10.9998 41.8L17.0998 45.7C17.9998 46.3 18.4998 47.3 18.4998 48.3L17.9998 62H26.9998L26.1998 49.9C26.1998 49.2 26.2998 48.5 26.6998 48C27.3998 47.1 27.9998 45.9 27.9998 44.7Z" fill="#00214D"/>
</svg>
