<svg width="63" height="63" viewBox="0 0 63 63" fill="none" xmlns="http://www.w3.org/2000/svg">
<path d="M31.5 61.0312C23.612 61.0312 16.196 57.9595 10.6182 52.3818C5.04037 46.8041 1.96875 39.388 1.96875 31.5C1.96875 23.612 5.04049 16.196 10.6182 10.6182C16.1959 5.04037 23.612 1.96875 31.5 1.96875C39.388 1.96875 46.8041 5.04049 52.3818 10.6182C57.9595 16.1959 61.0312 23.612 61.0312 31.5C61.0312 39.388 57.9595 46.8041 52.3818 52.3818C46.8041 57.9595 39.388 61.0312 31.5 61.0312ZM31.5 4.42969C16.5733 4.42969 4.42969 16.5733 4.42969 31.5C4.42969 46.4267 16.5733 58.5703 31.5 58.5703C46.4267 58.5703 58.5703 46.4267 58.5703 31.5C58.5703 16.5733 46.4267 4.42969 31.5 4.42969Z" fill="#10159C"/>
<path d="M31.5 49.957C21.3228 49.957 13.043 41.6772 13.043 31.5C13.043 21.3228 21.3228 13.043 31.5 13.043C41.6772 13.043 49.957 21.3228 49.957 31.5C49.957 41.6772 41.6772 49.957 31.5 49.957ZM31.5 15.5039C22.6798 15.5039 15.5039 22.6798 15.5039 31.5C15.5039 40.3204 22.6798 47.4961 31.5 47.4961C40.3204 47.4961 47.4961 40.3204 47.4961 31.5C47.4961 22.6798 40.3204 15.5039 31.5 15.5039Z" fill="#10159C"/>
<path d="M31.5 41.3438C30.8204 41.3438 30.2695 40.7927 30.2695 40.1133V20.4258C30.2695 19.7462 30.8204 19.1953 31.5 19.1953C32.1795 19.1953 32.7305 19.7462 32.7305 20.4258V40.1133C32.7305 40.7927 32.1795 41.3438 31.5 41.3438Z" fill="#55FFBD"/>
<path d="M41.3438 31.5H21.6562C20.9767 31.5 20.4258 30.9491 20.4258 30.2695C20.4258 29.5899 20.9767 29.0391 21.6562 29.0391H41.3438C42.0232 29.0391 42.5742 29.5899 42.5742 30.2695C42.5742 30.9491 42.0232 31.5 41.3438 31.5Z" fill="#55FFBD"/>
</svg>
